<svg width="56" height="56" viewBox="0 0 56 56" fill="none" xmlns="http://www.w3.org/2000/svg">
<g clip-path="url(#clip0_24_13)">
<path fill-rule="evenodd" clip-rule="evenodd" d="M39.34 44.7533C37.5933 45.3688 35.8933 46.1096 34.2533 46.97C33.8333 47.2267 33.4133 47.53 32.9933 47.8333C32.8933 47.7303 32.7998 47.6212 32.7133 47.5067C31.6254 46.4364 30.4289 45.4824 29.1433 44.66C29.0652 44.591 28.9742 44.5382 28.8757 44.5044C28.7771 44.4706 28.6728 44.4565 28.5688 44.463C28.4648 44.4695 28.3631 44.4965 28.2695 44.5423C28.1759 44.5881 28.0923 44.6519 28.0233 44.73C27.9544 44.8081 27.9015 44.8991 27.8677 44.9977C27.8339 45.0962 27.8199 45.2005 27.8264 45.3045C27.8329 45.4085 27.8598 45.5102 27.9056 45.6038C27.9514 45.6974 28.0152 45.781 28.0933 45.85C28.9567 46.9467 29.6567 48.1833 30.4267 49.35L30.6367 49.6767L30.4267 49.8633C29.1274 51.1833 27.9337 52.6032 26.8567 54.11C26.7698 54.1928 26.7007 54.2924 26.6535 54.4027C26.6063 54.5129 26.5819 54.6317 26.5819 54.7517C26.5819 54.8716 26.6063 54.9904 26.6535 55.1007C26.7007 55.211 26.7698 55.3105 26.8567 55.3933C26.9391 55.4766 27.0372 55.5427 27.1454 55.5878C27.2535 55.6328 27.3695 55.6561 27.4867 55.6561C27.6038 55.6561 27.7198 55.6328 27.828 55.5878C27.9361 55.5427 28.0342 55.4766 28.1167 55.3933C28.8633 54.6933 29.6333 54.0633 30.45 53.4333C31.2667 52.8033 31.71 52.5 32.34 52.0567L32.55 52.3133C33.4833 53.4567 34.44 54.53 35.35 55.65C35.4128 55.7496 35.4946 55.8358 35.5908 55.9038C35.6869 55.9717 35.7955 56.0201 35.9103 56.0461C36.0252 56.0721 36.144 56.0752 36.26 56.0553C36.3761 56.0354 36.4871 55.9928 36.5867 55.93C36.6862 55.8672 36.7725 55.7854 36.8405 55.6892C36.9084 55.5931 36.9568 55.4845 36.9828 55.3696C37.0088 55.2548 37.0119 55.136 36.992 55.0199C36.9721 54.9039 36.9295 54.7929 36.8667 54.6933C36.26 53.3633 35.6533 52.01 34.9067 50.68L34.65 50.3067L35.21 49.91C36.75 48.6967 38.22 47.4133 39.8767 46.2467C39.9706 46.1997 40.0542 46.1345 40.1228 46.0549C40.1913 45.9754 40.2434 45.883 40.2759 45.7831C40.3085 45.6833 40.3209 45.578 40.3124 45.4733C40.304 45.3686 40.2748 45.2666 40.2267 45.1733C40.1474 45.014 40.0168 44.886 39.856 44.8098C39.6952 44.7336 39.5135 44.7138 39.34 44.7533Z" fill="black"/>
<path fill-rule="evenodd" clip-rule="evenodd" d="M54.9967 31.78C55.0901 31.7325 55.1733 31.6671 55.2415 31.5874C55.3097 31.5078 55.3615 31.4155 55.394 31.3158C55.4265 31.2162 55.439 31.1111 55.4309 31.0066C55.4228 30.902 55.3942 30.8001 55.3467 30.7067C55.2992 30.6132 55.2337 30.53 55.1541 30.4619C55.0745 30.3937 54.9822 30.3419 54.8825 30.3094C54.7828 30.2769 54.6777 30.2643 54.5732 30.2725C54.4687 30.2806 54.3668 30.3092 54.2733 30.3567C52.5216 31.0055 50.8212 31.7855 49.1867 32.69C48.7447 32.9562 48.3164 33.2443 47.9033 33.5534C47.8228 33.4342 47.7288 33.3246 47.6233 33.2267C46.5428 32.1346 45.3456 31.1643 44.0533 30.3334C43.9046 30.1852 43.7033 30.102 43.4933 30.102C43.2834 30.102 43.082 30.1852 42.9333 30.3334C42.8571 30.4053 42.7963 30.4921 42.7548 30.5884C42.7133 30.6847 42.6918 30.7885 42.6918 30.8934C42.6918 30.9982 42.7133 31.102 42.7548 31.1983C42.7963 31.2946 42.8571 31.3814 42.9333 31.4533C43.82 32.5733 44.52 33.7867 45.2667 34.9767L45.5 35.3034L45.2667 35.49C44.0198 36.7876 42.8805 38.1844 41.86 39.6667C41.7732 39.7495 41.7041 39.849 41.6568 39.9593C41.6096 40.0696 41.5853 40.1884 41.5853 40.3083C41.5853 40.4283 41.6096 40.5471 41.6568 40.6574C41.7041 40.7677 41.7732 40.8672 41.86 40.95C42.0305 41.1196 42.2612 41.2148 42.5017 41.2148C42.7421 41.2148 42.9728 41.1196 43.1433 40.95C43.89 40.25 44.6367 39.62 45.4767 38.99C46.3167 38.36 46.7367 38.0567 47.3667 37.59L47.5767 37.87C48.51 39.0133 49.49 40.2034 50.3767 41.2067C50.5059 41.405 50.7073 41.5452 50.9382 41.5975C51.1691 41.6498 51.4113 41.61 51.6134 41.4867C51.8111 41.3573 51.9524 41.1576 52.0087 40.9281C52.0649 40.6986 52.0321 40.4563 51.9167 40.25C51.2867 38.92 50.68 37.5667 49.9333 36.2367C49.9333 36.2367 49.77 36.0034 49.7 35.8634L50.2367 35.4667C51.7767 34.23 53.27 32.9467 54.9967 31.78Z" fill="black"/>
<path fill-rule="evenodd" clip-rule="evenodd" d="M42.84 29.0267C43.1637 28.9166 43.4423 28.7035 43.6333 28.42C43.8433 28.1633 44.1467 27.44 44.24 27.3233C44.3333 27.2067 44.59 26.5767 44.73 26.18C44.9991 25.4155 45.225 24.6365 45.4067 23.8467L45.7333 23.3333C45.9676 22.478 45.9676 21.5754 45.7333 20.72C45.4533 19.2267 44.7533 17.36 44.6133 16.66C44.1933 15.12 43.89 13.5333 43.4933 11.9933C43.2367 10.9433 42.9567 9.91667 42.6533 8.86667C41.9533 6.23001 41.2067 3.64001 40.32 1.05001C40.265 0.844146 40.1318 0.667922 39.9487 0.558939C39.7656 0.449955 39.5472 0.416845 39.34 0.466672C39.1539 0.535763 38.9918 0.657338 38.8733 0.816672C38.8827 0.724484 38.873 0.631353 38.8449 0.543051C38.8168 0.45475 38.7709 0.37316 38.71 0.303339C38.6415 0.208191 38.5539 0.128428 38.4527 0.0691807C38.3516 0.00993319 38.2392 -0.0274872 38.1227 -0.0406737C38.0062 -0.0538601 37.8882 -0.0425207 37.7764 -0.0073847C37.6646 0.0277513 37.5613 0.0859059 37.4733 0.163339C36.0733 1.16667 34.65 2.14667 33.2033 3.08001C31.1967 4.41001 29.0733 5.62334 27.02 6.88334C25.6433 7.72334 24.29 8.63334 22.9133 9.47334C21.398 10.4137 19.9337 11.4341 18.5267 12.53C18.2838 12.7242 18.0913 12.974 17.9654 13.2583C17.8395 13.5426 17.7839 13.853 17.8033 14.1633L16.5433 16.8467C16.3441 17.2815 16.1878 17.7348 16.0767 18.2C16.0093 18.4374 15.9974 18.6872 16.0419 18.9299C16.0864 19.1727 16.1861 19.4019 16.3333 19.6C16.8812 20.1428 17.5316 20.5712 18.2467 20.86C19.6153 21.2834 21.022 21.5725 22.4467 21.7233C22.5722 21.7702 22.7068 21.7879 22.8403 21.7753C22.9737 21.7626 23.1025 21.7199 23.2171 21.6503C23.3316 21.5806 23.4289 21.486 23.5015 21.3733C23.5742 21.2607 23.6204 21.1331 23.6367 21C23.7032 20.7741 23.6797 20.5312 23.5709 20.3224C23.4621 20.1135 23.2766 19.9549 23.0533 19.88C22.3533 19.6 21.4433 19.1567 20.51 18.69C18.9467 17.9433 19.2733 18.41 19.5767 15.47L20.6267 15.68C21.5133 15.9133 22.4 16.17 23.2867 16.4733C24.1733 16.7767 25.62 17.36 26.9033 17.8267C26.705 19.0842 26.336 20.3088 25.8067 21.4667C24.969 23.3019 23.9694 25.0588 22.82 26.7167C21.63 28.63 20.2533 30.52 18.83 32.4333C17.465 34.307 16.0006 36.1062 14.4433 37.8233C12.4029 40.1408 10.0465 42.1595 7.44332 43.82C7.25159 43.8433 7.07561 43.9378 6.95027 44.0847C6.82493 44.2317 6.7594 44.4203 6.76666 44.6133C6.76646 44.7185 6.78782 44.8226 6.8294 44.9192C6.87098 45.0158 6.93191 45.1029 7.00843 45.175C7.08495 45.2471 7.17543 45.3029 7.27431 45.3387C7.37318 45.3745 7.47835 45.3897 7.58332 45.3833C9.78947 45.4364 11.9965 45.3272 14.1867 45.0567C15.7079 44.9119 17.2095 44.6069 18.6667 44.1467C20.6515 43.4406 22.5344 42.4756 24.2667 41.2767C25.9809 40.0638 27.5472 38.6542 28.9333 37.0767C32.7661 32.4705 35.6951 27.1824 37.5667 21.49L42.2333 23.52L43.0033 23.8C40.04 27.1833 42.7 26.6233 39.76 25.69C39.6544 25.6329 39.5385 25.5972 39.419 25.585C39.2996 25.5729 39.1789 25.5845 39.0639 25.6192C38.949 25.6539 38.842 25.711 38.7492 25.7872C38.6565 25.8635 38.5797 25.9573 38.5233 26.0633C38.4211 26.2754 38.4027 26.5182 38.4719 26.7433C38.5412 26.9683 38.6929 27.1588 38.8967 27.2767C39.6203 27.9082 40.4015 28.4707 41.23 28.9567C41.7413 29.1705 42.312 29.1953 42.84 29.0267ZM36.4 19.04C36.2899 18.9951 36.1719 18.9727 36.053 18.9743C35.9341 18.9759 35.8167 19.0015 35.7078 19.0493C35.599 19.0972 35.5009 19.1665 35.4194 19.2531C35.3378 19.3397 35.2746 19.4418 35.2333 19.5533C35.1503 19.7792 35.1602 20.0288 35.2608 20.2475C35.3613 20.4661 35.5444 20.636 35.77 20.72C33.8961 25.0642 31.4475 29.1372 28.49 32.83C26.7078 35.06 24.6541 37.0588 22.3767 38.78C20.8808 39.9233 19.2605 40.8939 17.5467 41.6733C16.3111 42.233 15.0209 42.6631 13.6967 42.9567C12.95 43.1433 12.2033 43.1667 11.3633 43.2833C13.7532 41.8039 15.9615 40.0498 17.9433 38.0567C19.6667 36.2861 21.2285 34.3652 22.61 32.3167C23.5121 30.9675 24.3454 29.5735 25.1067 28.14C26.1613 26.2685 27.0513 24.3089 27.7667 22.2833C28.2608 20.8914 28.5668 19.4397 28.6767 17.9667C28.6838 17.8063 28.6461 17.6471 28.5678 17.5069C28.4895 17.3668 28.3737 17.2513 28.2333 17.1733C28.2407 17.0683 28.2234 16.9629 28.1829 16.8657C28.1424 16.7685 28.0798 16.6821 28 16.6133C26.74 15.9367 25.48 15.26 24.1733 14.6533C23.4267 14.28 22.68 13.9533 21.84 13.65C23.03 12.95 24.4067 12.25 24.6633 12.0867C26.9967 10.4767 29.54 8.86667 31.8733 7.14001C34.2067 5.41334 36.54 3.54667 38.71 1.61001C38.8231 1.49277 38.9035 1.34797 38.9433 1.19001C38.9226 1.29005 38.9226 1.39329 38.9433 1.49334C39.7133 5.20334 40.1333 8.93667 40.7633 12.67C41.0433 14.28 41.4167 15.8667 41.79 17.4533L42.84 21L36.4 19.04Z" fill="black"/>
<path fill-rule="evenodd" clip-rule="evenodd" d="M5.94999 12.5067C10.6167 13.8833 12.95 11.4333 12.95 8.00333C13.0233 6.84889 12.6652 5.70836 11.9452 4.80297C11.2252 3.89758 10.1946 3.29187 9.05332 3.10333C7.9325 3.16214 6.84133 3.48435 5.86835 4.04381C4.89536 4.60328 4.06798 5.38424 3.45332 6.32333C2.99004 7.02334 2.76077 7.85228 2.79851 8.69086C2.83624 9.52944 3.13904 10.3344 3.66332 10.99C4.26107 11.708 5.056 12.2353 5.94999 12.5067ZM6.32332 7.44333C7.03281 6.67129 8.00806 6.19617 9.05332 6.11333C10.0333 6.11333 10.5 7.14 10.5933 8.12C10.9667 11.3633 8.49332 11.2933 6.99999 10.7567C6.41795 10.5699 5.91629 10.1916 5.57665 9.68333C5.13332 8.84333 5.69332 8.07333 6.32332 7.44333Z" fill="black"/>
<path fill-rule="evenodd" clip-rule="evenodd" d="M10.8267 25.5267C10.9023 24.3824 10.554 23.2504 9.84815 22.3466C9.14234 21.4429 8.12847 20.8306 7.00002 20.6267C5.85473 20.6492 4.73246 20.9524 3.73168 21.5097C2.7309 22.0671 1.88219 22.8615 1.26002 23.8233C0.799982 24.5258 0.574714 25.3561 0.616645 26.1947C0.658576 27.0333 0.965542 27.837 1.49335 28.49C2.11164 29.1867 2.92428 29.6824 3.82668 29.9133C8.47002 31.4067 10.78 28.9567 10.8267 25.5267ZM3.45335 27.2067C2.94002 26.3667 3.45335 25.5967 4.13002 24.8733C4.84127 24.1001 5.81394 23.6179 6.86002 23.52C7.84002 23.52 8.30668 24.5467 8.40002 25.55C8.89002 29.8433 4.34002 28.7233 3.45335 27.2067Z" fill="black"/>
</g>
<defs>
<clipPath id="clip0_24_13">
<rect width="56" height="56" fill="white"/>
</clipPath>
</defs>
</svg>
